<mxfile host="65bd71144e" pages="2">
    <diagram id="sYbn1ZRZAFL7KfqynhtD" name="Page-1">
        <mxGraphModel dx="923" dy="637" grid="1" gridSize="5" guides="1" tooltips="1" connect="1" arrows="1" fold="1" page="1" pageScale="1" pageWidth="850" pageHeight="1100" math="1" shadow="0">
            <root>
                <mxCell id="0"/>
                <mxCell id="1" parent="0"/>
                <mxCell id="8" style="edgeStyle=orthogonalEdgeStyle;rounded=0;orthogonalLoop=1;jettySize=auto;html=1;shadow=1;swimlaneLine=1;sketch=1;curveFitting=1;jiggle=2;" parent="1" source="12" target="9" edge="1">
                    <mxGeometry relative="1" as="geometry">
                        <Array as="points"/>
                        <mxPoint x="260" y="260" as="sourcePoint"/>
                    </mxGeometry>
                </mxCell>
                <mxCell id="9" value="" style="rounded=0;whiteSpace=wrap;html=1;shadow=1;swimlaneLine=1;sketch=1;curveFitting=1;jiggle=2;" parent="1" vertex="1">
                    <mxGeometry x="520" y="170" width="120" height="60" as="geometry"/>
                </mxCell>
                <mxCell id="10" value="" style="rounded=0;whiteSpace=wrap;html=1;shadow=1;swimlaneLine=1;sketch=1;curveFitting=1;jiggle=2;" parent="1" vertex="1">
                    <mxGeometry x="240" y="220" width="120" height="60" as="geometry"/>
                </mxCell>
                <mxCell id="11" style="edgeStyle=orthogonalEdgeStyle;rounded=0;orthogonalLoop=1;jettySize=auto;html=1;entryDx=0;entryDy=0;shadow=1;swimlaneLine=1;sketch=1;curveFitting=1;jiggle=2;" parent="1" source="12" target="9" edge="1">
                    <mxGeometry relative="1" as="geometry">
                        <mxPoint x="320" y="390" as="targetPoint"/>
                        <Array as="points">
                            <mxPoint x="80" y="75"/>
                            <mxPoint x="80" y="95"/>
                        </Array>
                    </mxGeometry>
                </mxCell>
                <mxCell id="13" value="" style="edgeStyle=none;orthogonalLoop=1;jettySize=auto;html=1;shape=flexArrow;rounded=0;startSize=8;endSize=8;endArrow=open;sourcePerimeterSpacing=8;targetPerimeterSpacing=8;curved=1;shadow=1;swimlaneLine=1;sketch=1;curveFitting=1;jiggle=2;" parent="1" edge="1">
                    <mxGeometry width="140" relative="1" as="geometry">
                        <mxPoint x="160" y="450" as="sourcePoint"/>
                        <mxPoint x="300" y="450" as="targetPoint"/>
                        <Array as="points"/>
                    </mxGeometry>
                </mxCell>
                <mxCell id="14" value="Horizontal Container" style="swimlane;horizontal=0;whiteSpace=wrap;html=1;rounded=0;shadow=1;swimlaneLine=1;fillColor=default;fontColor=#ffffff;strokeColor=#2D7600;fillStyle=auto;sketch=1;curveFitting=1;jiggle=2;" parent="1" vertex="1">
                    <mxGeometry x="520" y="290" width="200" height="200" as="geometry"/>
                </mxCell>
                <mxCell id="15" value="" style="shape=step;perimeter=stepPerimeter;whiteSpace=wrap;html=1;fixedSize=1;rounded=0;shadow=1;swimlaneLine=1;fillColor=#6a00ff;fontColor=#ffffff;strokeColor=#3700CC;fillStyle=hachure;sketch=1;curveFitting=1;jiggle=2;" parent="1" vertex="1">
                    <mxGeometry x="50" y="285" width="120" height="80" as="geometry"/>
                </mxCell>
                <mxCell id="16" value="" style="rounded=0;whiteSpace=wrap;html=1;shadow=1;swimlaneLine=1;fillColor=#60a917;fontColor=#ffffff;strokeColor=#2D7600;glass=0;fillStyle=hachure;gradientDirection=east;sketch=1;curveFitting=1;jiggle=2;" parent="1" vertex="1">
                    <mxGeometry x="300" y="310" width="200" height="90" as="geometry"/>
                </mxCell>
                <mxCell id="17" value="&lt;font face=&quot;Rock Salt&quot; data-font-src=&quot;https://fonts.googleapis.com/css?family=Rock+Salt&quot;&gt;Actor&lt;/font&gt;" style="shape=umlActor;verticalLabelPosition=bottom;verticalAlign=top;html=1;outlineConnect=0;shadow=1;swimlaneLine=1;sketch=1;curveFitting=1;jiggle=2;" parent="1" vertex="1">
                    <mxGeometry x="60" y="440" width="30" height="60" as="geometry"/>
                </mxCell>
                <mxCell id="18" value="Horizontal Container" style="swimlane;horizontal=0;whiteSpace=wrap;html=1;shadow=1;swimlaneLine=1;sketch=1;curveFitting=1;jiggle=2;" parent="1" vertex="1">
                    <mxGeometry x="360" y="660" width="200" height="200" as="geometry"/>
                </mxCell>
                <mxCell id="19" value="" style="shape=hexagon;perimeter=hexagonPerimeter2;whiteSpace=wrap;html=1;fixedSize=1;shadow=1;swimlaneLine=1;fillColor=#60a917;fontColor=#ffffff;strokeColor=#2D7600;sketch=1;curveFitting=1;jiggle=2;" parent="1" vertex="1">
                    <mxGeometry x="480" y="500" width="120" height="80" as="geometry"/>
                </mxCell>
                <mxCell id="20" value="List" style="swimlane;fontStyle=0;childLayout=stackLayout;horizontal=1;startSize=30;horizontalStack=0;resizeParent=1;resizeParentMax=0;resizeLast=0;collapsible=1;marginBottom=0;whiteSpace=wrap;html=1;shadow=1;swimlaneLine=1;sketch=1;curveFitting=1;jiggle=2;" parent="1" vertex="1">
                    <mxGeometry x="40" y="600" width="140" height="120" as="geometry"/>
                </mxCell>
                <mxCell id="21" value="Item 1" style="text;strokeColor=none;fillColor=none;align=left;verticalAlign=middle;spacingLeft=4;spacingRight=4;overflow=hidden;points=[[0,0.5],[1,0.5]];portConstraint=eastwest;rotatable=0;whiteSpace=wrap;html=1;shadow=1;swimlaneLine=1;sketch=1;curveFitting=1;jiggle=2;" parent="20" vertex="1">
                    <mxGeometry y="30" width="140" height="30" as="geometry"/>
                </mxCell>
                <mxCell id="22" value="Item 2" style="text;strokeColor=none;fillColor=none;align=left;verticalAlign=middle;spacingLeft=4;spacingRight=4;overflow=hidden;points=[[0,0.5],[1,0.5]];portConstraint=eastwest;rotatable=0;whiteSpace=wrap;html=1;shadow=1;swimlaneLine=1;sketch=1;curveFitting=1;jiggle=2;" parent="20" vertex="1">
                    <mxGeometry y="60" width="140" height="30" as="geometry"/>
                </mxCell>
                <mxCell id="23" value="Item 3" style="text;strokeColor=none;fillColor=none;align=left;verticalAlign=middle;spacingLeft=4;spacingRight=4;overflow=hidden;points=[[0,0.5],[1,0.5]];portConstraint=eastwest;rotatable=0;whiteSpace=wrap;html=1;shadow=1;swimlaneLine=1;sketch=1;curveFitting=1;jiggle=2;" parent="20" vertex="1">
                    <mxGeometry y="90" width="140" height="30" as="geometry"/>
                </mxCell>
                <mxCell id="25" value="&lt;font data-font-src=&quot;https://fonts.googleapis.com/css?family=Rock+Salt&quot;&gt;asdasdfsdf SDF&amp;nbsp;&lt;/font&gt;" style="text;html=1;align=center;verticalAlign=middle;resizable=0;points=[];autosize=1;strokeColor=none;glass=0;rounded=0;shadow=0;sketch=1;curveFitting=1;jiggle=2;fontFamily=Virgil Web Font;fontSource=https%3A%2F%2Fvirgil.excalidraw.com%2FVirgil.woff2;" parent="1" vertex="1">
                    <mxGeometry x="190" y="485" width="100" height="30" as="geometry"/>
                </mxCell>
                <mxCell id="PDone_2lDBb0Rt7qLaVb-25" value="" style="edgeStyle=orthogonalEdgeStyle;rounded=0;orthogonalLoop=1;jettySize=auto;html=1;shadow=1;swimlaneLine=1;sketch=1;curveFitting=1;jiggle=2;" parent="1" source="10" target="12" edge="1">
                    <mxGeometry relative="1" as="geometry">
                        <Array as="points">
                            <mxPoint x="80" y="175"/>
                            <mxPoint x="80" y="155"/>
                        </Array>
                        <mxPoint x="300" y="220" as="sourcePoint"/>
                        <mxPoint x="485" y="190" as="targetPoint"/>
                    </mxGeometry>
                </mxCell>
                <mxCell id="12" value="" style="rounded=0;whiteSpace=wrap;html=1;shadow=1;swimlaneLine=1;sketch=1;curveFitting=1;jiggle=2;" parent="1" vertex="1">
                    <mxGeometry x="350" y="155" width="110" height="60" as="geometry"/>
                </mxCell>
            </root>
        </mxGraphModel>
    </diagram>
    <diagram id="wbYhm8CIcn0wJctl552-" name="Page-2">
        <mxGraphModel dx="902" dy="637" grid="1" gridSize="10" guides="1" tooltips="1" connect="1" arrows="1" fold="1" page="1" pageScale="1" pageWidth="850" pageHeight="1100" math="0" shadow="0">
            <root>
                <mxCell id="0"/>
                <mxCell id="1" parent="0"/>
            </root>
        </mxGraphModel>
    </diagram>
</mxfile>